<svg xmlns="http://www.w3.org/2000/svg" viewBox="0 0 1200 675" width="1200" height="675" role="img" aria-labelledby="cover-title cover-desc">
  <title id="cover-title">AI 賦能全端開發</title>
  <desc id="cover-desc">從 Spring Boot + React 到 Spring AI + Embabel 的企業級 AI CRM 實戰路線</desc>
  
    <defs>
      <linearGradient id="cover-bg" x1="0" x2="1" y1="0" y2="1">
        <stop offset="0%" stop-color="#f8fafc"/>
        <stop offset="52%" stop-color="#eff6ff"/>
        <stop offset="100%" stop-color="#ecfeff"/>
      </linearGradient>
      <linearGradient id="cover-accent" x1="0" x2="1" y1="0" y2="1">
        <stop offset="0%" stop-color="#2563eb"/>
        <stop offset="100%" stop-color="#0f172a"/>
      </linearGradient>
      <filter id="cover-shadow" x="-20%" y="-20%" width="140%" height="150%">
        <feDropShadow dx="0" dy="16" stdDeviation="16" flood-color="#0f172a" flood-opacity="0.16"/>
      </filter>
      <marker id="cover-arrow" markerWidth="14" markerHeight="14" refX="11" refY="7" orient="auto">
        <path d="M2,2 L12,7 L2,12 Z" fill="#2563eb"/>
      </marker>
    </defs>
  <rect width="1200" height="675" rx="36" fill="url(#cover-bg)"/>
  <path d="M0 126 C220 40 335 120 520 62 C715 0 835 82 1200 26 L1200 0 L0 0 Z" fill="#2563eb" opacity="0.1"/>
  <circle cx="1030" cy="108" r="116" fill="#2563eb" opacity="0.09"/>
  <circle cx="112" cy="572" r="92" fill="#14b8a6" opacity="0.08"/>
  <text x="56" y="70" fill="#0f172a" font-size="34" font-weight="800" font-family="system-ui, 'Microsoft JhengHei', sans-serif">AI 賦能全端開發</text>
  <text x="58" y="108" fill="#475569" font-size="18" font-weight="600" font-family="system-ui, 'Microsoft JhengHei', sans-serif">從 Spring Boot + React 到 Spring AI + Embabel 的企業級 AI CRM 實戰路線</text>
  
      <g filter="url(#cover-shadow)">
        <rect x="84" y="156" width="1028" height="388" rx="34" fill="#ffffff" stroke="#cbd5e1"/>
        <rect x="124" y="202" width="304" height="274" rx="28" fill="#0f172a"/>
        <text x="158" y="254" fill="#ffffff" font-size="27" font-weight="900" font-family="system-ui, 'Microsoft JhengHei', sans-serif">AI CRM</text>
        <text x="158" y="290" fill="#cbd5e1" font-size="17" font-weight="700" font-family="system-ui, 'Microsoft JhengHei', sans-serif">智慧業務助理</text>
        <rect x="158" y="336" width="216" height="24" rx="12" fill="#334155"/>
        <rect x="158" y="382" width="170" height="24" rx="12" fill="#475569"/>
        <rect x="158" y="428" width="226" height="24" rx="12" fill="#2563eb"/>
        <path d="M492 408 C560 260 646 442 714 300 C770 184 866 290 964 218" fill="none" stroke="#2563eb" stroke-width="12" stroke-linecap="round"/>
        <circle cx="492" cy="408" r="16" fill="#0891b2"/>
        <circle cx="714" cy="300" r="16" fill="#16a34a"/>
        <circle cx="964" cy="218" r="16" fill="#d97706"/>
        <g transform="translate(506,456)">
          <rect x="0" y="0" width="142" height="34" rx="17" fill="#2563eb" opacity="0.92"/>
             <text x="71" y="23" text-anchor="middle" fill="#ffffff" font-size="14" font-weight="900" font-family="system-ui, 'Microsoft JhengHei', sans-serif">Spring Boot</text><rect x="170" y="0" width="142" height="34" rx="17" fill="#0891b2" opacity="0.92"/>
             <text x="241" y="23" text-anchor="middle" fill="#ffffff" font-size="14" font-weight="900" font-family="system-ui, 'Microsoft JhengHei', sans-serif">React</text><rect x="340" y="0" width="142" height="34" rx="17" fill="#16a34a" opacity="0.92"/>
             <text x="411" y="23" text-anchor="middle" fill="#ffffff" font-size="14" font-weight="900" font-family="system-ui, 'Microsoft JhengHei', sans-serif">Spring AI</text><rect x="0" y="52" width="142" height="34" rx="17" fill="#d97706" opacity="0.92"/>
             <text x="71" y="75" text-anchor="middle" fill="#ffffff" font-size="14" font-weight="900" font-family="system-ui, 'Microsoft JhengHei', sans-serif">RAG</text><rect x="170" y="52" width="142" height="34" rx="17" fill="#7c3aed" opacity="0.92"/>
             <text x="241" y="75" text-anchor="middle" fill="#ffffff" font-size="14" font-weight="900" font-family="system-ui, 'Microsoft JhengHei', sans-serif">MCP</text><rect x="340" y="52" width="142" height="34" rx="17" fill="#e11d48" opacity="0.92"/>
             <text x="411" y="75" text-anchor="middle" fill="#ffffff" font-size="14" font-weight="900" font-family="system-ui, 'Microsoft JhengHei', sans-serif">Embabel</text>
        </g>
      </g>
</svg>
