<svg xmlns="http://www.w3.org/2000/svg" viewBox="0 0 1200 675" width="1200" height="675" role="img" aria-labelledby="u9-hero-title u9-hero-desc">
  <title id="u9-hero-title">Unit 9｜Cloudflare Tunnel 上線實戰</title>
  <desc id="u9-hero-desc">內網 Docker Compose + Cloudflare Tunnel 對外服務</desc>
  <defs>
    <linearGradient id="u9-hero-bg" x1="0" x2="1" y1="0" y2="1">
      <stop offset="0%" stop-color="#f8fafc"/>
      <stop offset="52%" stop-color="#fff7ed"/>
      <stop offset="100%" stop-color="#eff6ff"/>
    </linearGradient>
    <filter id="u9-hero-shadow" x="-20%" y="-20%" width="140%" height="150%">
      <feDropShadow dx="0" dy="16" stdDeviation="16" flood-color="#0f172a" flood-opacity="0.16"/>
    </filter>
    <marker id="u9-hero-arrow" markerWidth="14" markerHeight="14" refX="11" refY="7" orient="auto">
      <path d="M2,2 L12,7 L2,12 Z" fill="#d97706"/>
    </marker>
  </defs>
  <rect width="1200" height="675" rx="36" fill="url(#u9-hero-bg)"/>
  <path d="M0 126 C220 40 335 120 520 62 C715 0 835 82 1200 26 L1200 0 L0 0 Z" fill="#d97706" opacity="0.1"/>
  <circle cx="1030" cy="108" r="116" fill="#d97706" opacity="0.09"/>
  <circle cx="112" cy="572" r="92" fill="#2563eb" opacity="0.08"/>
  <text x="56" y="70" fill="#0f172a" font-size="34" font-weight="800" font-family="system-ui, 'Microsoft JhengHei', sans-serif">Unit 9｜Cloudflare Tunnel 上線實戰</text>
  <text x="58" y="108" fill="#475569" font-size="18" font-weight="600" font-family="system-ui, 'Microsoft JhengHei', sans-serif">內網 Docker Compose + Cloudflare Tunnel 對外服務・免公網 IP・免開 port</text>

  <!-- 內網機器：Docker Compose 四服務 -->
  <g filter="url(#u9-hero-shadow)">
    <rect x="64" y="168" width="420" height="330" rx="28" fill="#ffffff" stroke="#cbd5e1"/>
    <rect x="64" y="168" width="420" height="60" rx="28" fill="#0f172a"/>
    <circle cx="106" cy="198" r="8" fill="#ef4444"/>
    <circle cx="130" cy="198" r="8" fill="#f59e0b"/>
    <circle cx="154" cy="198" r="8" fill="#22c55e"/>
    <text x="184" y="206" fill="#e2e8f0" font-size="17" font-weight="800" font-family="system-ui, 'Microsoft JhengHei', sans-serif">內網機器 · docker compose up</text>
    <rect x="96" y="252" width="168" height="56" rx="14" fill="#eff6ff" stroke="#bfdbfe"/>
    <text x="116" y="286" fill="#2563eb" font-size="16" font-weight="800" font-family="system-ui, 'Microsoft JhengHei', sans-serif">frontend · nginx</text>
    <rect x="284" y="252" width="168" height="56" rx="14" fill="#ecfdf5" stroke="#bbf7d0"/>
    <text x="304" y="286" fill="#16a34a" font-size="16" font-weight="800" font-family="system-ui, 'Microsoft JhengHei', sans-serif">backend · Boot</text>
    <rect x="96" y="328" width="168" height="56" rx="14" fill="#f0fdfa" stroke="#99f6e4"/>
    <text x="116" y="362" fill="#0891b2" font-size="16" font-weight="800" font-family="system-ui, 'Microsoft JhengHei', sans-serif">postgres·pgvector</text>
    <rect x="284" y="328" width="168" height="56" rx="14" fill="#fff7ed" stroke="#fed7aa"/>
    <text x="304" y="362" fill="#d97706" font-size="16" font-weight="800" font-family="system-ui, 'Microsoft JhengHei', sans-serif">cloudflared</text>
    <rect x="96" y="412" width="356" height="56" rx="14" fill="#f8fafc" stroke="#dbe4ef"/>
    <text x="116" y="446" fill="#475569" font-size="15" font-weight="700" font-family="system-ui, 'Microsoft JhengHei', sans-serif">volume 持久化 · .env secret · healthcheck</text>
  </g>

  <!-- 出站打洞連線 -->
  <path d="M492 340 C560 340 560 300 626 300" fill="none" stroke="#d97706" stroke-width="7" stroke-linecap="round" stroke-dasharray="2 14" marker-end="url(#u9-hero-arrow)"/>
  <text x="500" y="272" fill="#d97706" font-size="15" font-weight="800" font-family="system-ui, 'Microsoft JhengHei', sans-serif">只出不進的打洞連線</text>

  <!-- Cloudflare 邊緣 -->
  <g filter="url(#u9-hero-shadow)">
    <path d="M726 236 a56 56 0 0 1 54 -40 a64 64 0 0 1 124 14 a48 48 0 0 1 -6 96 l-172 0 a44 44 0 0 1 0 -70 z" fill="#f6821f" opacity="0.92"/>
    <text x="742" y="286" fill="#ffffff" font-size="19" font-weight="900" font-family="system-ui, 'Microsoft JhengHei', sans-serif">Cloudflare</text>
    <rect x="676" y="340" width="288" height="64" rx="18" fill="#0f172a" opacity="0.96"/>
    <text x="700" y="380" fill="#e2e8f0" font-size="15" font-weight="700" font-family="system-ui, 'Microsoft JhengHei', sans-serif">HTTPS · DDoS 防護 · Access</text>
  </g>

  <!-- 外部使用者手機 -->
  <g filter="url(#u9-hero-shadow)">
    <rect x="1020" y="222" width="116" height="220" rx="22" fill="#0f172a"/>
    <rect x="1032" y="252" width="92" height="150" rx="10" fill="#f8fafc"/>
    <rect x="1044" y="268" width="68" height="12" rx="6" fill="#93c5fd"/>
    <rect x="1044" y="292" width="52" height="12" rx="6" fill="#cbd5e1"/>
    <rect x="1044" y="322" width="68" height="30" rx="15" fill="#2563eb"/>
    <text x="1052" y="343" fill="#ffffff" font-size="13" font-weight="800" font-family="system-ui, 'Microsoft JhengHei', sans-serif">AI CRM</text>
    <circle cx="1078" cy="424" r="9" fill="#334155"/>
    <text x="1002" y="478" fill="#475569" font-size="15" font-weight="700" font-family="system-ui, 'Microsoft JhengHei', sans-serif">手機 4G 驗收</text>
  </g>
  <path d="M964 372 C992 372 992 340 1016 336" fill="none" stroke="#2563eb" stroke-width="6" stroke-linecap="round" marker-end="url(#u9-hero-arrow)"/>

  <!-- 底部流程 chips -->
  <g transform="translate(88,548)">
    <rect width="230" height="54" rx="27" fill="#ffffff" stroke="#2563eb" stroke-width="2"/>
    <circle cx="30" cy="27" r="10" fill="#2563eb"/>
    <text x="52" y="34" fill="#0f172a" font-size="17" font-weight="700" font-family="system-ui, 'Microsoft JhengHei', sans-serif">Compose 打包</text>
  </g>
  <g transform="translate(358,548)">
    <rect width="230" height="54" rx="27" fill="#ffffff" stroke="#d97706" stroke-width="2"/>
    <circle cx="30" cy="27" r="10" fill="#d97706"/>
    <text x="52" y="34" fill="#0f172a" font-size="17" font-weight="700" font-family="system-ui, 'Microsoft JhengHei', sans-serif">Tunnel 打洞</text>
  </g>
  <g transform="translate(628,548)">
    <rect width="230" height="54" rx="27" fill="#ffffff" stroke="#16a34a" stroke-width="2"/>
    <circle cx="30" cy="27" r="10" fill="#16a34a"/>
    <text x="52" y="34" fill="#0f172a" font-size="17" font-weight="700" font-family="system-ui, 'Microsoft JhengHei', sans-serif">外網驗收</text>
  </g>
  <g transform="translate(898,548)">
    <rect width="230" height="54" rx="27" fill="#ffffff" stroke="#7c3aed" stroke-width="2"/>
    <circle cx="30" cy="27" r="10" fill="#7c3aed"/>
    <text x="52" y="34" fill="#0f172a" font-size="17" font-weight="700" font-family="system-ui, 'Microsoft JhengHei', sans-serif">安全收尾</text>
  </g>
</svg>
