<svg xmlns="http://www.w3.org/2000/svg" width="1000" height="420" viewBox="0 0 1000 420" font-family="'Noto Sans TC','Microsoft JhengHei',sans-serif"><rect width="1000" height="420" fill="#ffffff"/><text x="500" y="42" text-anchor="middle" font-size="24" font-weight="700" fill="#1e293b">傳統入站被擋 vs Tunnel 反向通道</text><rect x="40" y="70" width="430" height="310" rx="10" fill="#ffffff" stroke="#e2e8f0" stroke-width="1.5"/><text x="255.0" y="231.0" text-anchor="middle" font-size="17" font-weight="700" fill="#1e293b"></text><text x="255" y="100" text-anchor="middle" font-size="17" font-weight="700" fill="#dc2626">傳統入站：被防火牆擋下</text><rect x="65" y="150" width="110" height="80" rx="10" fill="#f8fafc" stroke="#e2e8f0" stroke-width="1.5"/><text x="120.0" y="196.0" text-anchor="middle" font-size="14" font-weight="700" fill="#1e293b">外部使用者
/ Webhook</text><rect x="205" y="130" width="100" height="120" rx="10" fill="#fee2e2" stroke="#dc2626" stroke-width="1.5"/><text x="255.0" y="196.0" text-anchor="middle" font-size="14" font-weight="700" fill="#dc2626">路由器
NAT / 防火牆</text><rect x="335" y="150" width="110" height="80" rx="10" fill="#f8fafc" stroke="#e2e8f0" stroke-width="1.5"/><text x="390.0" y="196.0" text-anchor="middle" font-size="14" font-weight="700" fill="#1e293b">本地電腦
:8080</text><defs><marker id="m27006" markerWidth="9" markerHeight="9" refX="7" refY="4.5" orient="auto"><path d="M0,0 L8,4.5 L0,9 Z" fill="#dc2626"/></marker></defs><line x1="175" y1="190" x2="205" y2="190" stroke="#dc2626" stroke-width="2.0" marker-end="url(#m27006)"/><text x="190.0" y="182.0" text-anchor="middle" font-size="14" fill="#dc2626" font-weight="600">Inbound 請求</text><text x="255" y="275" text-anchor="middle" font-size="13" font-weight="600" fill="#dc2626">❌ 防火牆預設阻擋未知的連入請求</text><text x="255" y="305" text-anchor="middle" font-size="12" font-weight="400" fill="#64748b">開 Port 轉發危險、無固定 IP 連不到</text><text x="255" y="355" text-anchor="middle" font-size="13" font-weight="400" fill="#64748b">老派解法：申請固定 IP / 開 Port Forwarding</text><rect x="530" y="70" width="430" height="310" rx="10" fill="#ffffff" stroke="#e2e8f0" stroke-width="1.5"/><text x="745.0" y="231.0" text-anchor="middle" font-size="17" font-weight="700" fill="#1e293b"></text><text x="745" y="100" text-anchor="middle" font-size="17" font-weight="700" fill="#0f766e">Tunnel：主動向外建立通道</text><rect x="555" y="150" width="110" height="80" rx="10" fill="#d9f1ec" stroke="#0f766e" stroke-width="1.5"/><text x="610.0" y="196.0" text-anchor="middle" font-size="14" font-weight="700" fill="#0f766e">本地電腦
(cloudflared)</text><rect x="825" y="150" width="110" height="80" rx="10" fill="#eef3fb" stroke="#1d4ed8" stroke-width="1.5"/><text x="880.0" y="196.0" text-anchor="middle" font-size="14" font-weight="700" fill="#1d4ed8">雲端邊緣
(Anycast Edge)</text><defs><marker id="m81900" markerWidth="9" markerHeight="9" refX="7" refY="4.5" orient="auto"><path d="M0,0 L8,4.5 L0,9 Z" fill="#0f766e"/></marker></defs><line x1="665" y1="175" x2="825" y2="175" stroke="#0f766e" stroke-width="2.2" marker-end="url(#m81900)"/><text x="745.0" y="165.0" text-anchor="middle" font-size="14" fill="#0f766e" font-weight="600">① 主動建立出站連線 (Outbound)</text><defs><marker id="m95093" markerWidth="9" markerHeight="9" refX="7" refY="4.5" orient="auto"><path d="M0,0 L8,4.5 L0,9 Z" fill="#1d4ed8"/></marker></defs><line x1="825" y1="205" x2="665" y2="205" stroke="#1d4ed8" stroke-width="2.0" marker-end="url(#m95093)"/><text x="745.0" y="223.0" text-anchor="middle" font-size="14" fill="#1d4ed8" font-weight="600">② 順著通道塞回請求</text><text x="745" y="275" text-anchor="middle" font-size="13" font-weight="600" fill="#0f766e">✓ 防火牆放行出站長連線（QUIC / HTTP2）</text><text x="745" y="305" text-anchor="middle" font-size="12" font-weight="600" fill="#1e293b">免開 Port、免固定 IP、自帶免費 SSL</text><text x="745" y="355" text-anchor="middle" font-size="13" font-weight="700" fill="#1e293b">現代解法：Cloudflare Tunnel / ngrok</text></svg>